<svg width="39" height="38" viewBox="0 0 39 38" fill="none" xmlns="http://www.w3.org/2000/svg">
<path d="M15.4804 11.0916C16.3248 9.61755 17.5044 7.58067 18.1076 6.56224C18.9655 5.07478 19.2202 4.73977 19.3408 4.88718C19.4346 4.98098 20.5472 6.87045 21.8072 9.08153C23.0806 11.2926 24.3004 13.4233 24.5417 13.8119C24.7695 14.2005 24.9304 14.5355 24.8902 14.5623C24.85 14.6025 24.1663 14.8973 23.3487 15.2458C22.531 15.5942 21.1772 16.2106 20.3327 16.626C19.4883 17.0414 18.0674 17.8052 17.1827 18.3145C16.298 18.8237 14.971 19.6411 14.2338 20.1503C13.4966 20.6461 12.2231 21.5842 11.4189 22.2408C10.6146 22.884 9.14017 24.2241 8.14825 25.2157C6.714 26.663 6.4057 26.931 6.62017 26.5022C6.78102 26.2073 7.08932 25.6311 7.33059 25.2291C7.57187 24.8271 7.88017 24.2911 8.01421 24.0499C8.16166 23.8221 8.37613 23.42 8.52357 23.1922C8.65761 22.951 9.34123 21.7584 10.0383 20.5389C10.7353 19.3195 11.9014 17.296 12.6253 16.0498C13.3491 14.8035 14.6359 12.5657 15.4804 11.0916Z" fill="#F29515"/>
<path d="M28.9785 13.5841C29.4208 13.4099 29.9034 13.2223 30.0508 13.1687C30.1983 13.1017 30.3591 13.0481 30.4127 13.0481C30.4797 13.0347 30.52 13.0615 30.52 13.1017C30.52 13.1419 30.1446 13.3965 29.6889 13.6645C29.2197 13.9325 28.1206 14.6427 27.2359 15.219C26.3512 15.8086 24.9974 16.7734 24.22 17.3764C23.4425 17.9661 22.1289 19.1185 21.2978 19.9359C20.4534 20.74 19.5419 21.7048 19.2604 22.08C18.9789 22.4418 18.5097 23.1386 18.2148 23.6211C17.9334 24.1035 17.5714 24.8539 17.4106 25.2961C17.2631 25.7383 17.1157 26.395 17.0755 26.7702C17.0353 27.132 17.0621 27.7752 17.1291 28.1772C17.1961 28.5792 17.4106 29.2359 17.6117 29.6245C17.8261 30.0265 18.3489 30.7099 18.7912 31.1387C19.2336 31.5809 20.0244 32.2108 20.5338 32.5324C21.0431 32.854 21.5927 33.2158 21.7402 33.323C21.9814 33.4972 21.0163 33.524 12.7325 33.5374C7.62549 33.5374 3.44336 33.4972 3.44336 33.4302C3.44336 33.3766 3.76506 32.9344 4.15378 32.452C4.5291 31.9696 5.52102 30.8305 6.33868 29.9059C7.15634 28.9946 8.57719 27.5206 9.48868 26.6362C10.4136 25.7517 11.9148 24.3983 12.8263 23.6077C13.7512 22.8304 15.1319 21.7182 15.9093 21.1286C16.6868 20.5255 18.1344 19.5071 19.1263 18.8505C20.1183 18.1805 21.2442 17.4702 21.6061 17.2558C21.968 17.0414 22.5846 16.693 22.9466 16.4786C23.3085 16.2776 24.6489 15.6076 25.8955 14.9911C27.1421 14.3747 28.5361 13.7449 28.9785 13.5841Z" fill="#F29515"/>
<path d="M23.8983 18.9845C24.3406 18.5423 25.051 17.8856 25.4934 17.5372C25.9223 17.1888 26.3244 16.961 26.3646 17.0146C26.4183 17.0682 26.941 17.966 27.5308 18.9979C28.1206 20.0297 29.3136 22.1068 30.1848 23.6211C31.0561 25.1353 32.6646 27.9226 33.7504 29.8121C34.8495 31.7149 35.7208 33.3096 35.694 33.3766C35.6672 33.4302 34.93 33.4302 34.0453 33.39C33.174 33.3364 31.8604 33.2024 31.1231 33.0818C30.3859 32.9612 29.394 32.7736 28.9114 32.6664C28.4289 32.5592 27.5308 32.318 26.9008 32.1304C26.2708 31.9294 25.2521 31.5139 24.6489 31.2191C24.0323 30.9109 23.2012 30.4017 22.7991 30.0935C22.397 29.7719 21.8742 29.2359 21.6463 28.9008C21.4051 28.5658 21.07 27.9494 20.9091 27.534C20.708 27.0114 20.6142 26.462 20.6008 25.7651C20.6008 25.0951 20.6946 24.4519 20.8823 23.8221C21.0431 23.3128 21.3112 22.616 21.4721 22.281C21.6463 21.946 22.0887 21.2492 22.4506 20.74C22.8125 20.2307 23.4693 19.4401 23.8983 18.9845Z" fill="#F29515"/>
</svg>
